<svg xmlns="http://www.w3.org/2000/svg" viewBox="0 0 512 512">
  <rect width="512" height="512" rx="96" fill="#0a0a0a"/>

  <!-- Left star (pink) - lower -->
  <circle cx="120" cy="210" r="30" fill="#FF2D95" opacity="0.15"/>
  <polygon points="120,172 128,199 156,199 134,216 141,243 120,227 99,243 106,216 84,199 112,199" fill="#FF2D95"/>

  <!-- Center star (orange) - large and dominant -->
  <circle cx="256" cy="135" r="60" fill="#ff8c00" opacity="0.2"/>
  <polygon points="256,52 274,109 334,109 286,145 304,202 256,169 208,202 226,145 178,109 238,109" fill="#ff8c00"/>

  <!-- Right star (green) - lower -->
  <circle cx="392" cy="210" r="30" fill="#22c55e" opacity="0.15"/>
  <polygon points="392,172 400,199 428,199 406,216 413,243 392,227 371,243 378,216 356,199 384,199" fill="#22c55e"/>

  <!-- Ocean waves -->
  <path d="M0 340 Q64 310 128 340 Q192 370 256 340 Q320 310 384 340 Q448 370 512 340 L512 512 L0 512 Z" fill="#0a5e60" opacity="0.6"/>
  <path d="M0 370 Q80 335 160 370 Q240 405 320 370 Q400 335 480 370 Q496 378 512 370 L512 512 L0 512 Z" fill="#00CED1" opacity="0.4"/>
  <path d="M0 400 Q70 380 140 400 Q210 420 280 400 Q350 380 420 400 Q470 415 512 400 L512 512 L0 512 Z" fill="#00CED1" opacity="0.25"/>
  <path d="M0 430 Q90 415 180 430 Q270 445 360 430 Q450 415 512 430 L512 512 L0 512 Z" fill="#0a5e60" opacity="0.4"/>
</svg>
