<svg xmlns="http://www.w3.org/2000/svg" viewBox="0 0 512 512">
  <rect width="512" height="512" rx="96" fill="#0a0a0a"/>

  <!-- Stars -->
  <circle cx="120" cy="100" r="4" fill="#f5f5f5" opacity="0.9"/>
  <circle cx="280" cy="70" r="3" fill="#f5f5f5" opacity="0.7"/>
  <circle cx="400" cy="120" r="3.5" fill="#f5f5f5" opacity="0.8"/>
  <circle cx="200" cy="160" r="2.5" fill="#f5f5f5" opacity="0.6"/>
  <circle cx="350" cy="50" r="2" fill="#f5f5f5" opacity="0.5"/>
  <circle cx="80" cy="180" r="2" fill="#f5f5f5" opacity="0.5"/>
  <circle cx="440" cy="80" r="2.5" fill="#f5f5f5" opacity="0.6"/>
  <circle cx="160" cy="60" r="2" fill="#f5f5f5" opacity="0.4"/>
  <circle cx="320" cy="140" r="2" fill="#f5f5f5" opacity="0.5"/>

  <!-- Large star with brand orange glow -->
  <circle cx="256" cy="130" r="12" fill="#f97316" opacity="0.15"/>
  <polygon points="256,110 260,124 274,124 262,132 266,146 256,138 246,146 250,132 238,124 252,124" fill="#f97316"/>

  <!-- Large star with brand purple -->
  <circle cx="380" cy="180" r="8" fill="#a855f7" opacity="0.12"/>
  <polygon points="380,166 383,176 393,176 385,182 387,192 380,186 373,192 375,182 367,176 377,176" fill="#a855f7"/>

  <!-- Small brand green star -->
  <polygon points="140,200 142,207 149,207 143,211 145,218 140,214 135,218 137,211 131,207 138,207" fill="#22c55e" opacity="0.8"/>

  <!-- Ocean waves -->
  <!-- Deep water base -->
  <path d="M0 360 Q64 340 128 360 Q192 380 256 360 Q320 340 384 360 Q448 380 512 360 L512 512 L0 512 Z" fill="#1e3a5f" opacity="0.6"/>

  <!-- Mid wave with brand blue -->
  <path d="M0 380 Q80 355 160 380 Q240 405 320 380 Q400 355 480 380 Q496 385 512 380 L512 512 L0 512 Z" fill="#3b82f6" opacity="0.35"/>

  <!-- Front wave lighter -->
  <path d="M0 410 Q70 390 140 410 Q210 430 280 410 Q350 390 420 410 Q470 425 512 410 L512 512 L0 512 Z" fill="#3b82f6" opacity="0.2"/>

  <!-- Deepest water -->
  <path d="M0 440 Q90 425 180 440 Q270 455 360 440 Q450 425 512 440 L512 512 L0 512 Z" fill="#1e3a5f" opacity="0.4"/>
</svg>
